<mxfile host="Electron" agent="Mozilla/5.0 (Macintosh; Intel Mac OS X 10_15_7) AppleWebKit/537.36 (KHTML, like Gecko) draw.io/27.0.9 Chrome/134.0.6998.205 Electron/35.4.0 Safari/537.36" version="27.0.9">
  <diagram name="第 1 页" id="UgfUToFQ1sDy8aWVD4ze">
    <mxGraphModel dx="455" dy="390" grid="1" gridSize="10" guides="1" tooltips="1" connect="1" arrows="1" fold="1" page="1" pageScale="1" pageWidth="850" pageHeight="1100" math="1" shadow="0">
      <root>
        <mxCell id="0" />
        <mxCell id="1" parent="0" />
        <mxCell id="FQCRsAN3nEkafv9ix8LX-1" value="&lt;svg style=&quot;vertical-align: 0px;&quot; xmlns:xlink=&quot;http://www.w3.org/1999/xlink&quot; viewBox=&quot;0 -683 852 683&quot; role=&quot;img&quot; height=&quot;1.545ex&quot; width=&quot;1.928ex&quot; xmlns=&quot;http://www.w3.org/2000/svg&quot;&gt;&lt;defs&gt;&lt;path d=&quot;M42 0H40Q26 0 26 11Q26 15 29 27Q33 41 36 43T55 46Q141 49 190 98Q200 108 306 224T411 342Q302 620 297 625Q288 636 234 637H206Q200 643 200 645T202 664Q206 677 212 683H226Q260 681 347 681Q380 681 408 681T453 682T473 682Q490 682 490 671Q490 670 488 658Q484 643 481 640T465 637Q434 634 411 620L488 426L541 485Q646 598 646 610Q646 628 622 635Q617 635 609 637Q594 637 594 648Q594 650 596 664Q600 677 606 683H618Q619 683 643 683T697 681T738 680Q828 680 837 683H845Q852 676 852 672Q850 647 840 637H824Q790 636 763 628T722 611T698 593L687 584Q687 585 592 480L505 384Q505 383 536 304T601 142T638 56Q648 47 699 46Q734 46 734 37Q734 35 732 23Q728 7 725 4T711 1Q708 1 678 1T589 2Q528 2 496 2T461 1Q444 1 444 10Q444 11 446 25Q448 35 450 39T455 44T464 46T480 47T506 54Q523 62 523 64Q522 64 476 181L429 299Q241 95 236 84Q232 76 232 72Q232 53 261 47Q262 47 267 47T273 46Q276 46 277 46T280 45T283 42T284 35Q284 26 282 19Q279 6 276 4T261 1Q258 1 243 1T201 2T142 2Q64 2 42 0Z&quot; id=&quot;MJX-2-TEX-I-1D44B&quot;&gt;&lt;/path&gt;&lt;/defs&gt;&lt;g transform=&quot;scale(1,-1)&quot; stroke-width=&quot;0&quot; fill=&quot;currentColor&quot; stroke=&quot;currentColor&quot;&gt;&lt;g data-mml-node=&quot;math&quot;&gt;&lt;g data-mml-node=&quot;mi&quot;&gt;&lt;use xlink:href=&quot;#MJX-2-TEX-I-1D44B&quot; data-c=&quot;1D44B&quot;&gt;&lt;/use&gt;&lt;/g&gt;&lt;/g&gt;&lt;/g&gt;&lt;/svg&gt;" style="ellipse;whiteSpace=wrap;html=1;" vertex="1" parent="1">
          <mxGeometry x="312" y="273" width="120" height="70" as="geometry" />
        </mxCell>
        <mxCell id="FQCRsAN3nEkafv9ix8LX-2" value="" style="ellipse;whiteSpace=wrap;html=1;" vertex="1" parent="1">
          <mxGeometry x="390" y="280" width="20" height="10" as="geometry" />
        </mxCell>
        <mxCell id="FQCRsAN3nEkafv9ix8LX-3" value="" style="ellipse;whiteSpace=wrap;html=1;" vertex="1" parent="1">
          <mxGeometry x="400" y="290" width="20" height="10" as="geometry" />
        </mxCell>
        <mxCell id="FQCRsAN3nEkafv9ix8LX-4" value="" style="ellipse;whiteSpace=wrap;html=1;" vertex="1" parent="1">
          <mxGeometry x="405" y="300" width="20" height="10" as="geometry" />
        </mxCell>
        <mxCell id="FQCRsAN3nEkafv9ix8LX-5" value="" style="ellipse;whiteSpace=wrap;html=1;" vertex="1" parent="1">
          <mxGeometry x="405" y="310" width="20" height="10" as="geometry" />
        </mxCell>
        <mxCell id="FQCRsAN3nEkafv9ix8LX-6" value="" style="ellipse;whiteSpace=wrap;html=1;" vertex="1" parent="1">
          <mxGeometry x="400" y="320" width="20" height="10" as="geometry" />
        </mxCell>
        <mxCell id="FQCRsAN3nEkafv9ix8LX-7" value="" style="ellipse;whiteSpace=wrap;html=1;" vertex="1" parent="1">
          <mxGeometry x="385" y="290" width="20" height="10" as="geometry" />
        </mxCell>
        <mxCell id="FQCRsAN3nEkafv9ix8LX-8" value="" style="ellipse;whiteSpace=wrap;html=1;" vertex="1" parent="1">
          <mxGeometry x="385" y="300" width="20" height="10" as="geometry" />
        </mxCell>
        <mxCell id="FQCRsAN3nEkafv9ix8LX-9" value="" style="ellipse;whiteSpace=wrap;html=1;" vertex="1" parent="1">
          <mxGeometry x="385" y="310" width="20" height="10" as="geometry" />
        </mxCell>
        <mxCell id="FQCRsAN3nEkafv9ix8LX-10" value="" style="ellipse;whiteSpace=wrap;html=1;" vertex="1" parent="1">
          <mxGeometry x="385" y="320" width="20" height="10" as="geometry" />
        </mxCell>
        <mxCell id="FQCRsAN3nEkafv9ix8LX-13" value="$$2^{H(X|T)}$$" style="text;html=1;align=center;verticalAlign=middle;whiteSpace=wrap;rounded=0;" vertex="1" parent="1">
          <mxGeometry x="510" y="280" width="60" height="30" as="geometry" />
        </mxCell>
        <mxCell id="FQCRsAN3nEkafv9ix8LX-16" value="" style="curved=1;endArrow=classic;html=1;rounded=0;" edge="1" parent="1">
          <mxGeometry width="50" height="50" relative="1" as="geometry">
            <mxPoint x="340.58147768599963" y="321.5097829213237" as="sourcePoint" />
            <mxPoint x="250" y="310" as="targetPoint" />
            <Array as="points">
              <mxPoint x="340" y="318.5" />
              <mxPoint x="280" y="322" />
            </Array>
          </mxGeometry>
        </mxCell>
        <mxCell id="FQCRsAN3nEkafv9ix8LX-18" value="" style="curved=1;endArrow=classic;html=1;rounded=0;" edge="1" parent="1">
          <mxGeometry width="50" height="50" relative="1" as="geometry">
            <mxPoint x="420" y="315" as="sourcePoint" />
            <mxPoint x="510" y="295" as="targetPoint" />
            <Array as="points">
              <mxPoint x="460" y="315" />
              <mxPoint x="490" y="295" />
            </Array>
          </mxGeometry>
        </mxCell>
        <mxCell id="FQCRsAN3nEkafv9ix8LX-20" value="$$2^{H(X)}$$" style="text;html=1;align=center;verticalAlign=middle;whiteSpace=wrap;rounded=0;" vertex="1" parent="1">
          <mxGeometry x="200" y="293" width="60" height="30" as="geometry" />
        </mxCell>
      </root>
    </mxGraphModel>
  </diagram>
</mxfile>
